# xmcd
#
# Track frame offsets:
#	150
#	13185
#	27205
#	44917
#	62257
#	79202
#	92897
#	107290
#	125352
#	140055
#	158165
#	170477
#	188460
#	205955
#	219515
#	237385
#	255842
#	269145
#	280667
#	294410
#
# Disc length: 4151 seconds
#
# Revision: 1
# Processed by: cddbd v1.5.1PL0 Copyright (c) Steve Scherf et al.
# Submitted via: audiograbber 1.82.02
#
DISCID=1f103514
DTITLE=Music Mastero Country Club Pack 1 [CD3 of 5) (Various) - MMCOU103
DYEAR=1900
DGENRE=Karaoke
TTITLE0=Strait, George - Blue Clear Sky
TTITLE1=Tillis, Pam - Mi Vida Loca
TTITLE2=Kersh, David - Another You
TTITLE3=Berry, John - Your Love Amazes Me
TTITLE4=Confederate Railroad, The - Daddy Was Never The Cadillac Kind
TTITLE5=Williams, Hank Jr. - Born To Boogie
TTITLE6=McCready, Mindy - Guys Do It All The Time
TTITLE7=Raye, Collin - Love Me
TTITLE8=Alabama - Jukebox In My Mind
TTITLE9=Bogguss, Suzy - Letting Go
TTITLE10=Jefferson, Paul - Check Please
TTITLE11=McCready, Mindy - Maybe He'll Notice Her Now
TTITLE12=Keith, Toby - Me Too
TTITLE13=Frickie, Janie - He's A Heartache
TTITLE14=Judd, Wynonna - No One Else On Earth
TTITLE15=Montgomery, John Michael - I Love The Way You Love Me
TTITLE16=Tucker, Tanya - San Antonio Stroll
TTITLE17=Jackson, Alan - Tall Tall Trees
TTITLE18=Yearwood, Trisha - Everybody Knows
TTITLE19=Diffie, Joe - Bigger Than The Beatles
EXTD=
EXTT0=
EXTT1=
EXTT2=
EXTT3=
EXTT4=
EXTT5=
EXTT6=
EXTT7=
EXTT8=
EXTT9=
EXTT10=
EXTT11=
EXTT12=
EXTT13=
EXTT14=
EXTT15=
EXTT16=
EXTT17=
EXTT18=
EXTT19=
PLAYORDER=
